<?xml version="1.0" encoding="utf-8"?>
<?xml-stylesheet type="text/xsl" href="rss1.xsl"?>
<rss version="2.0" xmlns:atom="http://www.w3.org/2005/Atom" xmlns:content="http://purl.org/rss/1.0/modules/content/" xmlns:dc="http://purl.org/dc/elements/1.1/" xmlns:media="http://search.yahoo.com/mrss/">
<channel>
 <title>Getty</title>
 <link>http://www.gettyimg.com/</link>
 <atom:link href="http://www.gettyimg.com/" rel="self" type="application/rss+xml" />

 
                <item>
                <title><![CDATA[【Apple Music】WEB-RiP - Jennifer Lopez - Dinero (feat. DJ Khaled &amp; Cardi B) (1080p)]]></title>
                <link><![CDATA[https://sharemania.us/threads/jennifer-lopez-dinero-feat-dj-khaled-cardi-b-1080p.223520/]]></link>
                <description><![CDATA[<article>
<blockquote class="messageText SelectQuoteContainer ugc baseHtml">
<img src="https://i.imgur.com/Ijf5Ysp.jpg" class="bbCodeImage LbImage" alt="[​IMG]" data-url="https://i.imgur.com/Ijf5Ysp.jpg" style=""><br>
<br>
<div class="bbCodeBlock bbCodeCode">
<div class="type">Code:</div>
<pre>General
Complete name                  : C:\Users\asus\Desktop\Jennifer Lopez - Dinero (feat. DJ Khaled &amp; Cardi B).mp4
Format                         : MPEG-4
Format profile                 : Base Media
Codec ID                       : isom (isom/iso2/avc1/mp41)
File size                      : 247 MiB
Duration                       : 3 min 36 s
Overall bit rate               : 9 555 kb/s
Frame rate                     : 23.976 FPS
Movie name                     : Dinero (feat. DJ Khaled &amp; Cardi B)
Performer                      : Jennifer Lopez
Genre                          : Pop
ContentType                    : Music Video
Recorded date                  : 2018-05-24 07:00:00 UTC
Writing application            : Lavf57.29.101
Copyright                      : ℗ (C) 2018 Epic Records, a division of Sony Music Entertainment

Video
ID                             : 1
Format                         : AVC
Format/Info                    : Advanced Video Codec
Format profile                 : High@L4
Format settings                : CABAC / 4 Ref Frames
Format settings, CABAC         : Yes
Format settings, Reference fra : 4 frames
Codec ID                       : avc1
Codec ID/Info                  : Advanced Video Coding
Duration                       : 3 min 36 s
Bit rate                       : 9 294 kb/s
Width                          : 1 920 pixels
Height                         : 944 pixels
Display aspect ratio           : 2.034
Frame rate mode                : Constant
Frame rate                     : 23.976 (24000/1001) FPS
Color space                    : YUV
Chroma subsampling             : 4:2:0
Bit depth                      : 8 bits
Scan type                      : Progressive
Bits/(Pixel*Frame)             : 0.214
Stream size                    : 240 MiB (97%)
Color range                    : Limited
Color primaries                : BT.709
Transfer characteristics       : BT.709
Matrix coefficients            : BT.709
Codec configuration box        : avcC

Audio
ID                             : 2
Format                         : AAC LC
Format/Info                    : Advanced Audio Codec Low Complexity
Codec ID                       : mp4a-40-2
Duration                       : 3 min 36 s
Bit rate mode                  : Constant
Bit rate                       : 257 kb/s
Channel(s)                     : 2 channels
Channel layout                 : L R
Sampling rate                  : 48.0 kHz
Frame rate                     : 46.875 FPS (1024 SPF)
Compression mode               : Lossy
Stream size                    : 6.64 MiB (3%)
Default                        : Yes
Alternate group                : 1

</pre>
</div>
<div class="bbCodeBlock bbCodeVfcHH HiddenContent">
<div class="attribution type">Hidden Content:</div>
<blockquote>You must either reply or click 'Like' to see the hidden information contained here.</blockquote>
</div>
<div class="messageTextEndMarker">&nbsp;</div>
</blockquote>
</article>]]></description>
                <author><![CDATA[vitalya3]]></author>
                </item>

                
                <item>
                <title><![CDATA[【Apple Music】WEB-RiP - Tiësto &amp; Mabel - God Is a Dancer (1080p)]]></title>
                <link><![CDATA[https://sharemania.us/threads/ti%C3%ABsto-mabel-god-is-a-dancer-1080p.223521/]]></link>
                <description><![CDATA[<article>
<blockquote class="messageText SelectQuoteContainer ugc baseHtml">
<img src="https://i.imgur.com/s2VIK7u.jpg" class="bbCodeImage LbImage" alt="[​IMG]" data-url="https://i.imgur.com/s2VIK7u.jpg" style=""><br>
<br>
<div class="bbCodeBlock bbCodeCode">
<div class="type">Code:</div>
<pre>General
Complete name                  : C:\Users\asus\Desktop\Tiësto &amp; Mabel - God Is a Dancer.mp4
Format                         : MPEG-4
Format profile                 : Base Media
Codec ID                       : isom (isom/iso2/avc1/mp41)
File size                      : 193 MiB
Duration                       : 2 min 49 s
Overall bit rate               : 9 548 kb/s
Frame rate                     : 23.976 FPS
Movie name                     : God Is a Dancer
Performer                      : Tiësto &amp; Mabel
Genre                          : Dance
ContentType                    : Music Video
Recorded date                  : 2019-09-20 07:00:00 UTC
Writing application            : Lavf57.29.101
Copyright                      : ℗ 2019 Musical Freedom Label Ltd., under exclusive license to PM:AM Recordings, a division of Universal Music BV

Video
ID                             : 1
Format                         : AVC
Format/Info                    : Advanced Video Codec
Format profile                 : High@L4.1
Format settings                : CABAC / 4 Ref Frames
Format settings, CABAC         : Yes
Format settings, Reference fra : 4 frames
Codec ID                       : avc1
Codec ID/Info                  : Advanced Video Coding
Duration                       : 2 min 49 s
Bit rate                       : 9 294 kb/s
Width                          : 1 912 pixels
Height                         : 1 072 pixels
Display aspect ratio           : 16:9
Frame rate mode                : Constant
Frame rate                     : 23.976 (24000/1001) FPS
Color space                    : YUV
Chroma subsampling             : 4:2:0
Bit depth                      : 8 bits
Scan type                      : Progressive
Bits/(Pixel*Frame)             : 0.189
Stream size                    : 188 MiB (97%)
Language                       : English
Color range                    : Limited
Color primaries                : BT.709
Transfer characteristics       : BT.709
Matrix coefficients            : BT.709
Codec configuration box        : avcC

Audio
ID                             : 2
Format                         : AAC LC
Format/Info                    : Advanced Audio Codec Low Complexity
Codec ID                       : mp4a-40-2
Duration                       : 2 min 49 s
Bit rate mode                  : Constant
Bit rate                       : 253 kb/s
Channel(s)                     : 2 channels
Channel layout                 : L R
Sampling rate                  : 48.0 kHz
Frame rate                     : 46.875 FPS (1024 SPF)
Compression mode               : Lossy
Stream size                    : 5.11 MiB (3%)
Default                        : Yes
Alternate group                : 1

</pre>
</div>
<div class="bbCodeBlock bbCodeVfcHH HiddenContent">
<div class="attribution type">Hidden Content:</div>
<blockquote>You must either reply or click 'Like' to see the hidden information contained here.</blockquote>
</div>
<div class="messageTextEndMarker">&nbsp;</div>
</blockquote>
</article>]]></description>
                <author><![CDATA[vitalya3]]></author>
                </item>

                </channel></rss>